<svg width="46" height="67" viewBox="0 0 46 67" fill="none" xmlns="http://www.w3.org/2000/svg">
<path id="Vector" d="M23 31.825C20.8214 31.825 18.7321 30.9426 17.1916 29.372C15.6511 27.8014 14.7857 25.6712 14.7857 23.45C14.7857 21.2288 15.6511 19.0986 17.1916 17.528C18.7321 15.9574 20.8214 15.075 23 15.075C25.1786 15.075 27.2679 15.9574 28.8084 17.528C30.3489 19.0986 31.2143 21.2288 31.2143 23.45C31.2143 24.5498 31.0018 25.6389 30.589 26.655C30.1762 27.6711 29.5711 28.5943 28.8084 29.372C28.0456 30.1497 27.1401 30.7666 26.1435 31.1875C25.1469 31.6084 24.0787 31.825 23 31.825ZM23 0C16.9 0 11.0499 2.47062 6.73654 6.86835C2.42321 11.2661 0 17.2307 0 23.45C0 41.0375 23 67 23 67C23 67 46 41.0375 46 23.45C46 17.2307 43.5768 11.2661 39.2635 6.86835C34.9501 2.47062 29.1 0 23 0Z" fill="#00A3F8"/>
</svg>
