<svg width="100" height="100" viewBox="0 0 100 100" fill="none" xmlns="http://www.w3.org/2000/svg">
<g id="Group 12">
<circle id="Ellipse 4" cx="50" cy="50" r="47.5" stroke="white" stroke-width="5"/>
<path id="Vector" d="M50.3825 31.319L39.4925 39.8948C37.6812 41.3168 37.3325 43.8764 38.705 45.7032C40.1562 47.6502 42.98 48.0331 44.9262 46.5564L56.0975 38.1118C56.885 37.5211 58.01 37.6524 58.6287 38.4181C59.2475 39.1838 59.1012 40.2776 58.3137 40.8793L55.9625 42.6513L71.6 56.6527V36.0007H71.5212L71.0825 35.7272L62.915 30.6408C61.1937 29.5688 59.18 29 57.1325 29C54.68 29 52.295 29.8204 50.3825 31.319ZM52.9475 44.9265L47.1312 49.3238C43.5875 52.0147 38.4462 51.3146 35.7912 47.7706C33.2937 44.4343 33.9237 39.7745 37.22 37.182L46.58 29.8204C45.275 29.2844 43.8687 29.0109 42.44 29.0109C40.325 29 38.2662 29.6126 36.5 30.7502L28.4 36.0007V60.503H31.5725L41.855 69.6258C44.06 71.5838 47.4688 71.4306 49.4825 69.2867C50.1012 68.6194 50.5175 67.8428 50.7313 67.0333L52.6437 68.7398C54.8375 70.6978 58.2575 70.5556 60.2712 68.4225C60.7775 67.8866 61.1488 67.2631 61.385 66.6177C63.5675 68.0397 66.5375 67.7444 68.3712 65.7973C70.385 63.6643 70.2387 60.339 68.045 58.381L52.9475 44.9265ZM15.8 36.0007C14.81 36.0007 14 36.7882 14 37.7508V60.503C14 62.4392 15.6087 64.0034 17.6 64.0034H21.2C23.1912 64.0034 24.8 62.4392 24.8 60.503V36.0007H15.8ZM19.4 57.0027C19.8774 57.0027 20.3352 57.1871 20.6728 57.5153C21.0104 57.8435 21.2 58.2887 21.2 58.7529C21.2 59.217 21.0104 59.6622 20.6728 59.9904C20.3352 60.3186 19.8774 60.503 19.4 60.503C18.9226 60.503 18.4648 60.3186 18.1272 59.9904C17.7896 59.6622 17.6 59.217 17.6 58.7529C17.6 58.2887 17.7896 57.8435 18.1272 57.5153C18.4648 57.1871 18.9226 57.0027 19.4 57.0027ZM75.2 36.0007V60.503C75.2 62.4392 76.8088 64.0034 78.8 64.0034H82.4C84.3913 64.0034 86 62.4392 86 60.503V37.7508C86 36.7882 85.19 36.0007 84.2 36.0007H75.2ZM78.8 58.7529C78.8 58.2887 78.9896 57.8435 79.3272 57.5153C79.6648 57.1871 80.1226 57.0027 80.6 57.0027C81.0774 57.0027 81.5352 57.1871 81.8728 57.5153C82.2104 57.8435 82.4 58.2887 82.4 58.7529C82.4 59.217 82.2104 59.6622 81.8728 59.9904C81.5352 60.3186 81.0774 60.503 80.6 60.503C80.1226 60.503 79.6648 60.3186 79.3272 59.9904C78.9896 59.6622 78.8 59.217 78.8 58.7529Z" fill="white"/>
</g>
</svg>
