<svg width="68" height="54" viewBox="0 0 68 54" fill="none" xmlns="http://www.w3.org/2000/svg">
<path id="Vector" d="M62.2279 46.2645C68.6389 39.3525 67.9934 30.4762 67.973 30.375V3.375C67.973 2.47989 67.6151 1.62145 66.9779 0.988515C66.3408 0.35558 65.4766 0 64.5756 0H44.1908C40.4434 0 37.3959 3.02737 37.3959 6.75V30.375C37.3959 31.2701 37.7538 32.1285 38.391 32.7615C39.0281 33.3944 39.8923 33.75 40.7933 33.75H51.2507C51.1789 35.4186 50.6771 37.0409 49.7932 38.4615C48.0673 41.1649 44.8159 43.011 40.124 43.9425L37.3959 44.4825V54H40.7933C50.2485 54 57.4613 51.3979 62.2279 46.2645ZM24.832 46.2645C31.2465 39.3525 30.5975 30.4762 30.5772 30.375V3.375C30.5772 2.47989 30.2192 1.62145 29.5821 0.988515C28.9449 0.35558 28.0808 0 27.1797 0H6.79492C3.04752 0 0 3.02737 0 6.75V30.375C0 31.2701 0.357946 32.1285 0.995093 32.7615C1.63224 33.3944 2.4964 33.75 3.39746 33.75H13.8548C13.7831 35.4186 13.2812 37.0409 12.3973 38.4615C10.6714 41.1649 7.42006 43.011 2.72816 43.9425L0 44.4825V54H3.39746C12.8526 54 20.0654 51.3979 24.832 46.2645Z" fill="#E5E5E5"/>
</svg>
