<svg width="17" height="20" viewBox="0 0 17 20" fill="none" xmlns="http://www.w3.org/2000/svg">
<path id="Vector" fill-rule="evenodd" clip-rule="evenodd" d="M17 10C17 9.67106 16.9291 9.34946 16.7962 9.07572C16.6633 8.80198 16.4744 8.58833 16.2532 8.46169L1.68187 0.12846C1.38462 -0.0417175 1.05029 -0.0428543 0.752432 0.125301C0.454572 0.293455 0.217581 0.61713 0.0935931 1.02512C-0.0303949 1.4331 -0.0312232 1.89198 0.091291 2.3008C0.213805 2.70963 0.449626 3.03491 0.746875 3.20509L12.6286 10L0.746875 16.7949C0.449626 16.9651 0.213805 17.2904 0.091291 17.6992C-0.0312232 18.108 -0.0303949 18.5669 0.0935931 18.9749C0.217581 19.3829 0.454572 19.7065 0.752432 19.8747C1.05029 20.0429 1.38462 20.0417 1.68187 19.8715L16.2532 11.5383C16.4744 11.4117 16.6633 11.198 16.7962 10.9243C16.9291 10.6505 17 10.3289 17 10Z" fill="black"/>
</svg>
