<svg width="44" height="44" viewBox="0 0 44 44" fill="none" xmlns="http://www.w3.org/2000/svg">
<g id="Group 3">
<circle id="Ellipse 2" opacity="0.4" cx="22" cy="22" r="22" fill="#0034FF"/>
<path id="Vector" d="M34 31.3336L27.1286 24.4622C28.399 22.5316 28.9078 20.1983 28.5565 17.9141C28.2053 15.6299 27.019 13.5572 25.2273 12.0975C23.4357 10.6377 21.1661 9.89459 18.858 10.0121C16.55 10.1296 14.3676 11.0993 12.7334 12.7334C11.0993 14.3676 10.1296 16.55 10.0121 18.858C9.89459 21.1661 10.6377 23.4357 12.0975 25.2273C13.5572 27.019 15.6299 28.2053 17.9141 28.5565C20.1983 28.9078 22.5316 28.399 24.4622 27.1286L31.3336 34L34 31.3336ZM12.6687 19.3347C12.6687 15.6591 15.6591 12.6687 19.3347 12.6687C23.0104 12.6687 26.0007 15.6591 26.0007 19.3347C26.0007 23.0104 23.0104 26.0007 19.3347 26.0007C15.6591 26.0007 12.6687 23.0104 12.6687 19.3347Z" fill="white"/>
</g>
</svg>
