<svg width="44" height="44" viewBox="0 0 44 44" fill="none" xmlns="http://www.w3.org/2000/svg">
<g id="Group 2">
<circle id="Ellipse 3" opacity="0.4" cx="22" cy="22" r="22" fill="#0034FF"/>
<g id="Vector">
<path fill-rule="evenodd" clip-rule="evenodd" d="M21.9467 24.5805C21.6119 24.3653 21.3232 24.0869 21.0972 23.7613C20.8711 23.4357 20.7122 23.0692 20.6293 22.6828C20.5464 22.2964 20.5413 21.8976 20.6142 21.5092C20.6872 21.1209 20.8367 20.7505 21.0544 20.4193L24.3699 15.3768C24.584 15.0381 24.8642 14.745 25.194 14.5146C25.5239 14.2842 25.8968 14.1211 26.2911 14.0348C26.6853 13.9485 27.093 13.9407 27.4903 14.012C27.8876 14.0833 28.2666 14.2321 28.6052 14.4499C28.9437 14.6676 29.235 14.9499 29.4621 15.2802C29.6891 15.6105 29.8474 15.9822 29.9276 16.3737C30.0079 16.7652 30.0085 17.1686 29.9295 17.5603C29.8504 17.952 29.6933 18.3243 29.4672 18.6553L26.1532 23.6993C25.9354 24.0306 25.6539 24.3162 25.3245 24.5398C24.9952 24.7634 24.6245 24.9206 24.2338 25.0024C23.843 25.0843 23.4397 25.0891 23.047 25.0168C22.6544 24.9444 22.28 24.7961 21.9452 24.5805H21.9467ZM18.2343 24.8843C17.724 23.9354 17.4801 22.8685 17.5279 21.7947C17.5758 20.7209 17.9137 19.6794 18.5065 18.7786L21.8205 13.7361C22.6999 12.3985 24.0803 11.4613 25.6582 11.1306C27.2361 10.8 28.8821 11.1029 30.2342 11.9728C31.5863 12.8427 32.5337 14.2083 32.8679 15.7692C33.2022 17.3301 32.896 18.9584 32.0166 20.296L28.7026 25.3385C28.1259 26.2164 27.3276 26.9302 26.3866 27.4093C25.4457 27.8884 24.3946 28.1163 23.3373 28.0704C22.28 28.0246 21.2531 27.7065 20.3581 27.1477C19.4632 26.5889 18.7311 25.8088 18.2343 24.8843Z" fill="white"/>
<path fill-rule="evenodd" clip-rule="evenodd" d="M14.4247 30.5043C14.0899 30.2891 13.8012 30.0107 13.5752 29.6851C13.3491 29.3594 13.1901 28.993 13.1073 28.6065C13.0244 28.2201 13.0193 27.8214 13.0922 27.433C13.1651 27.0446 13.3147 26.6743 13.5323 26.3431L16.8479 21.3006C17.062 20.9619 17.3421 20.6688 17.672 20.4384C18.0018 20.208 18.3748 20.0448 18.769 19.9585C19.1633 19.8723 19.571 19.8645 19.9683 19.9358C20.3656 20.0071 20.7446 20.1559 21.0831 20.3736C21.4217 20.5914 21.713 20.8736 21.94 21.204C22.1671 21.5343 22.3254 21.906 22.4056 22.2975C22.4859 22.689 22.4865 23.0924 22.4074 23.4841C22.3284 23.8758 22.1712 24.2495 21.9452 24.5805L18.6311 29.623C18.1914 30.2917 17.5013 30.7602 16.7124 30.9255C15.9235 31.0907 15.1006 30.9393 14.4247 30.5043ZM10.7123 30.8081C10.202 29.8592 9.95804 28.7923 10.0059 27.7185C10.0538 26.6447 10.3917 25.6032 10.9844 24.7024L14.2985 19.6614C14.7338 18.9991 15.2967 18.4281 15.9551 17.981C16.6135 17.5339 17.3544 17.2195 18.1356 17.0557C18.9168 16.8919 19.723 16.8819 20.5081 17.0263C21.2932 17.1707 22.0419 17.4667 22.7114 17.8973C23.3809 18.3279 23.9581 18.8848 24.41 19.5361C24.8619 20.1874 25.1798 20.9204 25.3454 21.6932C25.5109 22.466 25.521 23.2635 25.3751 24.0402C25.2291 24.8169 24.9299 25.5575 24.4946 26.2198L21.1805 31.2623C20.6039 32.1401 19.8056 32.8539 18.8646 33.3331C17.9236 33.8122 16.8725 34.0401 15.8152 33.9942C14.7579 33.9483 13.731 33.6303 12.8361 33.0715C11.9411 32.5127 11.2091 31.7325 10.7123 30.8081Z" fill="white"/>
</g>
</g>
</svg>
