<svg width="100" height="100" viewBox="0 0 100 100" fill="none" xmlns="http://www.w3.org/2000/svg">
<g id="Group 13">
<circle id="Ellipse 5" cx="50" cy="50" r="47.5" stroke="white" stroke-width="5"/>
<g id="Vector">
<path d="M50 49.736C47.4362 49.736 44.9775 50.7555 43.1646 52.5701C41.3518 54.3847 40.3333 56.8459 40.3333 59.4122C40.3333 61.9785 41.3518 64.4397 43.1646 66.2543C44.9775 68.069 47.4362 69.0884 50 69.0884C52.5638 69.0884 55.0225 68.069 56.8354 66.2543C58.6482 64.4397 59.6667 61.9785 59.6667 59.4122C59.6667 56.8459 58.6482 54.3847 56.8354 52.5701C55.0225 50.7555 52.5638 49.736 50 49.736ZM45.8571 59.4122C45.8571 58.3124 46.2936 57.2576 47.0706 56.4799C47.8475 55.7022 48.9012 55.2653 50 55.2653C51.0988 55.2653 52.1525 55.7022 52.9294 56.4799C53.7064 57.2576 54.1429 58.3124 54.1429 59.4122C54.1429 60.5121 53.7064 61.5668 52.9294 62.3445C52.1525 63.1222 51.0988 63.5592 50 63.5592C48.9012 63.5592 47.8475 63.1222 47.0706 62.3445C46.2936 61.5668 45.8571 60.5121 45.8571 59.4122Z" fill="white"/>
<path d="M65.2623 29.322L56.4822 17L24.1983 42.8161L22.4086 42.7968V42.8244H21V76H79V42.8244H76.343L71.0568 27.3453L65.2623 29.322ZM70.5071 42.8244H42.8108L63.4394 35.7857L67.6431 34.4393L70.5071 42.8244ZM59.8048 31.1853L38.5105 38.4508L55.3747 24.9649L59.8048 31.1853ZM26.5238 65.4087V53.4102C27.689 52.9969 28.7474 52.3285 29.6218 51.4537C30.4962 50.5789 31.1645 49.5198 31.5781 48.3537H68.4219C68.8353 49.5203 69.5035 50.5798 70.3779 51.455C71.2523 52.3303 72.3108 52.9992 73.4762 53.413V65.4115C72.3108 65.8252 71.2523 66.4941 70.3779 67.3694C69.5035 68.2446 68.8353 69.3042 68.4219 70.4707H31.5836C31.1698 69.3032 30.5009 68.2428 29.6255 67.3671C28.7501 66.4913 27.6904 65.8223 26.5238 65.4087Z" fill="white"/>
</g>
</g>
</svg>
