<svg width="60" height="60" viewBox="0 0 60 60" fill="none" xmlns="http://www.w3.org/2000/svg">
<path id="Vector" d="M54.1212 40.9159L45.6374 39.9473C44.6399 39.8301 43.6288 39.9406 42.68 40.2703C41.7313 40.6001 40.8696 41.1405 40.1597 41.8511L34.014 47.9969C24.5323 43.1745 16.8254 35.4676 12.0031 25.9858L18.1822 19.8066C19.6184 18.3704 20.3198 16.3664 20.086 14.3289L19.1174 5.91194C18.928 4.28257 18.1461 2.77973 16.9204 1.68957C15.6948 0.59941 14.111 -0.00194478 12.4707 4.72516e-06H6.69238C2.91812 4.72516e-06 -0.221534 3.13967 0.0122696 6.91396C1.7825 35.4382 24.5951 58.2175 53.0858 59.9877C56.86 60.2215 59.9997 57.0819 59.9997 53.3076V47.5293C60.0331 44.1558 57.4946 41.3167 54.1212 40.9159Z" fill="#00A3F8"/>
</svg>
