<svg width="122" height="21" viewBox="0 0 122 21" fill="none" xmlns="http://www.w3.org/2000/svg">
<g id="Stars">
<path id="Vector" d="M20.621 9.44933C20.8586 9.27231 21.0348 9.02537 21.125 8.74312C21.2152 8.46088 21.2148 8.15748 21.1238 7.87548C21.0329 7.59348 20.856 7.34701 20.6179 7.17064C20.3798 6.99426 20.0925 6.89682 19.7962 6.89198L14.0422 6.67461C14.0139 6.67266 13.9868 6.66257 13.9641 6.64555C13.9414 6.62854 13.9241 6.60532 13.9143 6.57871L11.926 1.2083C11.8261 0.935069 11.6446 0.69914 11.4062 0.532451C11.1678 0.365763 10.8839 0.276367 10.593 0.276367C10.3021 0.276367 10.0182 0.365763 9.77974 0.532451C9.54132 0.69914 9.35987 0.935069 9.25997 1.2083L7.27803 6.59789C7.26823 6.6245 7.25095 6.64772 7.22826 6.66473C7.20558 6.68175 7.17845 6.69184 7.15016 6.69379L1.39615 6.91117C1.09988 6.916 0.81256 7.01344 0.574469 7.18982C0.336377 7.36619 0.159455 7.61266 0.0685093 7.89466C-0.0224362 8.17666 -0.0228442 8.48006 0.0673424 8.7623C0.157529 9.04455 0.333788 9.29149 0.571404 9.4685L5.08511 13.0168C5.1077 13.0346 5.12458 13.0586 5.13367 13.0859C5.14276 13.1131 5.14366 13.1425 5.13626 13.1703L3.58267 18.6749C3.50217 18.9552 3.50997 19.2535 3.60501 19.5293C3.70005 19.805 3.87773 20.0447 4.11386 20.2159C4.35 20.3871 4.63313 20.4813 4.92474 20.4859C5.21634 20.4904 5.50227 20.405 5.74362 20.2413L10.5131 17.0446C10.5366 17.0284 10.5644 17.0197 10.593 17.0197C10.6215 17.0197 10.6494 17.0284 10.6729 17.0446L15.4423 20.2413C15.6804 20.4106 15.9653 20.5016 16.2575 20.5016C16.5496 20.5016 16.8346 20.4106 17.0726 20.2413C17.3088 20.0718 17.4867 19.8332 17.5817 19.5584C17.6767 19.2836 17.6843 18.9861 17.6033 18.7069L16.0369 13.183C16.0286 13.1553 16.0291 13.1257 16.0382 13.0982C16.0474 13.0708 16.0648 13.0468 16.0881 13.0296L20.621 9.44933Z" fill="#FFC700"/>
<path id="Vector_2" d="M45.621 9.17296C45.8586 8.99594 46.0348 8.749 46.125 8.46675C46.2152 8.18451 46.2148 7.88112 46.1238 7.59911C46.0329 7.31711 45.856 7.07065 45.6179 6.89427C45.3798 6.71789 45.0925 6.62046 44.7962 6.61562L39.0422 6.39824C39.0139 6.39629 38.9868 6.3862 38.9641 6.36918C38.9414 6.35217 38.9241 6.32896 38.9143 6.30234L36.926 0.931928C36.8261 0.658702 36.6446 0.422773 36.4062 0.256084C36.1678 0.0893959 35.8839 0 35.593 0C35.3021 0 35.0182 0.0893959 34.7797 0.256084C34.5413 0.422773 34.3599 0.658702 34.26 0.931928L32.278 6.32152C32.2682 6.34814 32.2509 6.37135 32.2283 6.38836C32.2056 6.40538 32.1785 6.41547 32.1502 6.41742L26.3961 6.6348C26.0999 6.63964 25.8126 6.73707 25.5745 6.91345C25.3364 7.08983 25.1595 7.33629 25.0685 7.61829C24.9776 7.9003 24.9772 8.20369 25.0673 8.48594C25.1575 8.76818 25.3338 9.01512 25.5714 9.19214L30.0851 12.7404C30.1077 12.7582 30.1246 12.7822 30.1337 12.8095C30.1428 12.8368 30.1437 12.8661 30.1363 12.8939L28.5827 18.3986C28.5022 18.6789 28.51 18.9772 28.605 19.2529C28.7001 19.5286 28.8777 19.7684 29.1139 19.9395C29.35 20.1107 29.6331 20.205 29.9247 20.2095C30.2163 20.2141 30.5023 20.1287 30.7436 19.9649L35.5131 16.7683C35.5366 16.752 35.5644 16.7434 35.593 16.7434C35.6215 16.7434 35.6494 16.752 35.6729 16.7683L40.4423 19.9649C40.6804 20.1343 40.9653 20.2252 41.2575 20.2252C41.5496 20.2252 41.8346 20.1343 42.0726 19.9649C42.3088 19.7954 42.4867 19.5568 42.5817 19.282C42.6767 19.0072 42.6843 18.7098 42.6033 18.4305L41.0369 12.9067C41.0286 12.8789 41.0291 12.8493 41.0382 12.8219C41.0474 12.7944 41.0648 12.7704 41.0881 12.7532L45.621 9.17296Z" fill="#FFC700"/>
<path id="Vector_3" d="M70.621 9.17296C70.8586 8.99594 71.0348 8.749 71.125 8.46675C71.2152 8.18451 71.2148 7.88112 71.1238 7.59911C71.0329 7.31711 70.856 7.07065 70.6179 6.89427C70.3798 6.71789 70.0925 6.62046 69.7962 6.61562L64.0422 6.39824C64.0139 6.39629 63.9868 6.3862 63.9641 6.36918C63.9414 6.35217 63.9241 6.32896 63.9143 6.30234L61.926 0.931928C61.8261 0.658702 61.6446 0.422773 61.4062 0.256084C61.1678 0.0893959 60.8839 0 60.593 0C60.3021 0 60.0182 0.0893959 59.7797 0.256084C59.5413 0.422773 59.3599 0.658702 59.26 0.931928L57.278 6.32152C57.2682 6.34814 57.2509 6.37135 57.2283 6.38836C57.2056 6.40538 57.1785 6.41547 57.1502 6.41742L51.3961 6.6348C51.0999 6.63964 50.8126 6.73707 50.5745 6.91345C50.3364 7.08983 50.1595 7.33629 50.0685 7.61829C49.9776 7.9003 49.9772 8.20369 50.0673 8.48594C50.1575 8.76818 50.3338 9.01512 50.5714 9.19214L55.0851 12.7404C55.1077 12.7582 55.1246 12.7822 55.1337 12.8095C55.1428 12.8368 55.1437 12.8661 55.1363 12.8939L53.5827 18.3986C53.5022 18.6789 53.51 18.9772 53.605 19.2529C53.7001 19.5286 53.8777 19.7684 54.1139 19.9395C54.35 20.1107 54.6331 20.205 54.9247 20.2095C55.2163 20.2141 55.5023 20.1287 55.7436 19.9649L60.5131 16.7683C60.5366 16.752 60.5644 16.7434 60.593 16.7434C60.6215 16.7434 60.6494 16.752 60.6729 16.7683L65.4423 19.9649C65.6804 20.1343 65.9653 20.2252 66.2575 20.2252C66.5496 20.2252 66.8346 20.1343 67.0726 19.9649C67.3088 19.7954 67.4867 19.5568 67.5817 19.282C67.6767 19.0072 67.6843 18.7098 67.6033 18.4305L66.0369 12.9067C66.0286 12.8789 66.0291 12.8493 66.0382 12.8219C66.0474 12.7944 66.0648 12.7704 66.0881 12.7532L70.621 9.17296Z" fill="#FFC700"/>
<path id="Vector_4" d="M96.536 9.17296C96.7736 8.99594 96.9499 8.749 97.0401 8.46675C97.1302 8.18451 97.1298 7.88112 97.0389 7.59911C96.9479 7.31711 96.771 7.07065 96.5329 6.89427C96.2948 6.71789 96.0075 6.62046 95.7112 6.61562L89.9572 6.39824C89.9289 6.39629 89.9018 6.3862 89.8791 6.36918C89.8564 6.35217 89.8392 6.32896 89.8294 6.30234L87.841 0.931928C87.7411 0.658702 87.5597 0.422773 87.3213 0.256084C87.0828 0.0893959 86.7989 0 86.508 0C86.2171 0 85.9332 0.0893959 85.6948 0.256084C85.4564 0.422773 85.2749 0.658702 85.175 0.931928L83.1931 6.32152C83.1833 6.34814 83.166 6.37135 83.1433 6.38836C83.1206 6.40538 83.0935 6.41547 83.0652 6.41742L77.3112 6.6348C77.0149 6.63964 76.7276 6.73707 76.4895 6.91345C76.2514 7.08983 76.0745 7.33629 75.9835 7.61829C75.8926 7.9003 75.8922 8.20369 75.9824 8.48594C76.0726 8.76818 76.2488 9.01512 76.4864 9.19214L81.0001 12.7404C81.0227 12.7582 81.0396 12.7822 81.0487 12.8095C81.0578 12.8368 81.0587 12.8661 81.0513 12.8939L79.4977 18.3986C79.4172 18.6789 79.425 18.9772 79.52 19.2529C79.6151 19.5286 79.7928 19.7684 80.0289 19.9395C80.265 20.1107 80.5482 20.205 80.8398 20.2095C81.1314 20.2141 81.4173 20.1287 81.6587 19.9649L86.4281 16.7683C86.4516 16.752 86.4795 16.7434 86.508 16.7434C86.5366 16.7434 86.5644 16.752 86.5879 16.7683L91.3574 19.9649C91.5955 20.1343 91.8804 20.2252 92.1725 20.2252C92.4647 20.2252 92.7496 20.1343 92.9877 19.9649C93.2239 19.7954 93.4017 19.5568 93.4967 19.282C93.5918 19.0072 93.5993 18.7098 93.5183 18.4305L91.952 12.9067C91.9437 12.8789 91.9441 12.8493 91.9533 12.8219C91.9624 12.7944 91.9798 12.7704 92.0031 12.7532L96.536 9.17296Z" fill="#FFC700"/>
<path id="Vector_5" d="M121.027 9.17296C121.265 8.99594 121.441 8.749 121.531 8.46675C121.621 8.18451 121.621 7.88112 121.53 7.59911C121.439 7.31711 121.262 7.07065 121.024 6.89427C120.786 6.71789 120.499 6.62046 120.202 6.61562L114.448 6.39824C114.42 6.39629 114.393 6.3862 114.37 6.36918C114.348 6.35217 114.33 6.32896 114.321 6.30234L112.332 0.931928C112.232 0.658702 112.051 0.422773 111.812 0.256084C111.574 0.0893959 111.29 0 110.999 0C110.708 0 110.424 0.0893959 110.186 0.256084C109.948 0.422773 109.766 0.658702 109.666 0.931928L107.684 6.32152C107.674 6.34814 107.657 6.37135 107.635 6.38836C107.612 6.40538 107.585 6.41547 107.556 6.41742L101.802 6.6348C101.506 6.63964 101.219 6.73707 100.981 6.91345C100.743 7.08983 100.566 7.33629 100.475 7.61829C100.384 7.9003 100.383 8.20369 100.474 8.48594C100.564 8.76818 100.74 9.01512 100.978 9.19214L105.491 12.7404C105.514 12.7582 105.531 12.7822 105.54 12.8095C105.549 12.8368 105.55 12.8661 105.543 12.8939L103.989 18.3986C103.908 18.6789 103.916 18.9772 104.011 19.2529C104.106 19.5286 104.284 19.7684 104.52 19.9395C104.756 20.1107 105.039 20.205 105.331 20.2095C105.623 20.2141 105.909 20.1287 106.15 19.9649L110.919 16.7683C110.943 16.752 110.971 16.7434 110.999 16.7434C111.028 16.7434 111.056 16.752 111.079 16.7683L115.849 19.9649C116.087 20.1343 116.372 20.2252 116.664 20.2252C116.956 20.2252 117.241 20.1343 117.479 19.9649C117.715 19.7954 117.893 19.5568 117.988 19.282C118.083 19.0072 118.091 18.7098 118.01 18.4305L116.443 12.9067C116.435 12.8789 116.435 12.8493 116.444 12.8219C116.454 12.7944 116.471 12.7704 116.494 12.7532L121.027 9.17296Z" fill="#FFC700"/>
</g>
</svg>
