<svg width="61" height="61" viewBox="0 0 61 61" fill="none" xmlns="http://www.w3.org/2000/svg">
<g id="Vector">
<path d="M10.6389 10.6389L19.8056 19.8056M41.1944 41.1944L50.3611 50.3611M50.3611 10.6389L41.1944 19.8056M19.8056 41.1944L10.6389 50.3611M27.4444 6.05556C27.4444 6.86594 27.7664 7.64313 28.3394 8.21616C28.9124 8.78919 29.6896 9.11111 30.5 9.11111C31.3104 9.11111 32.0876 8.78919 32.6606 8.21616C33.2336 7.64313 33.5556 6.86594 33.5556 6.05556C33.5556 5.24517 33.2336 4.46798 32.6606 3.89495C32.0876 3.32192 31.3104 3 30.5 3C29.6896 3 28.9124 3.32192 28.3394 3.89495C27.7664 4.46798 27.4444 5.24517 27.4444 6.05556ZM3 30.5C3 31.3104 3.32192 32.0876 3.89495 32.6606C4.46798 33.2336 5.24517 33.5556 6.05556 33.5556C6.86594 33.5556 7.64313 33.2336 8.21616 32.6606C8.78919 32.0876 9.11111 31.3104 9.11111 30.5C9.11111 29.6896 8.78919 28.9124 8.21616 28.3394C7.64313 27.7664 6.86594 27.4444 6.05556 27.4444C5.24517 27.4444 4.46798 27.7664 3.89495 28.3394C3.32192 28.9124 3 29.6896 3 30.5ZM51.8889 30.5C51.8889 31.3104 52.2108 32.0876 52.7838 32.6606C53.3569 33.2336 54.1341 33.5556 54.9444 33.5556C55.7548 33.5556 56.532 33.2336 57.1051 32.6606C57.6781 32.0876 58 31.3104 58 30.5C58 29.6896 57.6781 28.9124 57.1051 28.3394C56.532 27.7664 55.7548 27.4444 54.9444 27.4444C54.1341 27.4444 53.3569 27.7664 52.7838 28.3394C52.2108 28.9124 51.8889 29.6896 51.8889 30.5ZM27.4444 54.9444C27.4444 55.7548 27.7664 56.532 28.3394 57.1051C28.9124 57.6781 29.6896 58 30.5 58C31.3104 58 32.0876 57.6781 32.6606 57.1051C33.2336 56.532 33.5556 55.7548 33.5556 54.9444C33.5556 54.1341 33.2336 53.3569 32.6606 52.7838C32.0876 52.2108 31.3104 51.8889 30.5 51.8889C29.6896 51.8889 28.9124 52.2108 28.3394 52.7838C27.7664 53.3569 27.4444 54.1341 27.4444 54.9444Z" stroke="black" stroke-width="5" stroke-linecap="round" stroke-linejoin="round"/>
<path d="M10.6389 10.6389L19.8056 19.8056M41.1944 41.1944L50.3611 50.3611M50.3611 10.6389L41.1944 19.8056M19.8056 41.1944L10.6389 50.3611M27.4444 6.05556C27.4444 6.86594 27.7664 7.64313 28.3394 8.21616C28.9124 8.78919 29.6896 9.11111 30.5 9.11111C31.3104 9.11111 32.0876 8.78919 32.6606 8.21616C33.2336 7.64313 33.5556 6.86594 33.5556 6.05556C33.5556 5.24517 33.2336 4.46798 32.6606 3.89495C32.0876 3.32192 31.3104 3 30.5 3C29.6896 3 28.9124 3.32192 28.3394 3.89495C27.7664 4.46798 27.4444 5.24517 27.4444 6.05556ZM3 30.5C3 31.3104 3.32192 32.0876 3.89495 32.6606C4.46798 33.2336 5.24517 33.5556 6.05556 33.5556C6.86594 33.5556 7.64313 33.2336 8.21616 32.6606C8.78919 32.0876 9.11111 31.3104 9.11111 30.5C9.11111 29.6896 8.78919 28.9124 8.21616 28.3394C7.64313 27.7664 6.86594 27.4444 6.05556 27.4444C5.24517 27.4444 4.46798 27.7664 3.89495 28.3394C3.32192 28.9124 3 29.6896 3 30.5ZM51.8889 30.5C51.8889 31.3104 52.2108 32.0876 52.7838 32.6606C53.3569 33.2336 54.1341 33.5556 54.9444 33.5556C55.7548 33.5556 56.532 33.2336 57.1051 32.6606C57.6781 32.0876 58 31.3104 58 30.5C58 29.6896 57.6781 28.9124 57.1051 28.3394C56.532 27.7664 55.7548 27.4444 54.9444 27.4444C54.1341 27.4444 53.3569 27.7664 52.7838 28.3394C52.2108 28.9124 51.8889 29.6896 51.8889 30.5ZM27.4444 54.9444C27.4444 55.7548 27.7664 56.532 28.3394 57.1051C28.9124 57.6781 29.6896 58 30.5 58C31.3104 58 32.0876 57.6781 32.6606 57.1051C33.2336 56.532 33.5556 55.7548 33.5556 54.9444C33.5556 54.1341 33.2336 53.3569 32.6606 52.7838C32.0876 52.2108 31.3104 51.8889 30.5 51.8889C29.6896 51.8889 28.9124 52.2108 28.3394 52.7838C27.7664 53.3569 27.4444 54.1341 27.4444 54.9444Z" stroke="black" stroke-width="5" stroke-linecap="round" stroke-linejoin="round"/>
</g>
</svg>
