<svg width="71" height="61" viewBox="0 0 71 61" fill="none" xmlns="http://www.w3.org/2000/svg">
<g id="Vector">
<path d="M35.4803 45.0717H18.1261C9.77215 45.0587 3 38.5655 3 30.5548C3 22.5474 9.77215 16.0541 18.1261 16.0541C19.4026 10.3535 23.9531 5.70112 30.0626 3.84728C36.1689 1.99668 42.9118 3.22286 47.7449 7.0826C52.578 10.9326 54.7671 16.8112 53.4939 22.5118H56.7094C61.1917 22.5118 65.0569 25.1357 66.8693 28.9372M58.2165 58V38.5881M58.2165 38.5881L67.9606 48.2941M58.2165 38.5881L48.4724 48.2941" stroke="black" stroke-width="5" stroke-linecap="round" stroke-linejoin="round"/>
<path d="M35.4803 45.0717H18.1261C9.77215 45.0587 3 38.5655 3 30.5548C3 22.5474 9.77215 16.0541 18.1261 16.0541C19.4026 10.3535 23.9531 5.70112 30.0626 3.84728C36.1689 1.99668 42.9118 3.22286 47.7449 7.0826C52.578 10.9326 54.7671 16.8112 53.4939 22.5118H56.7094C61.1917 22.5118 65.0569 25.1357 66.8693 28.9372M58.2165 58V38.5881M58.2165 38.5881L67.9606 48.2941M58.2165 38.5881L48.4724 48.2941" stroke="black" stroke-opacity="0.2" stroke-width="5" stroke-linecap="round" stroke-linejoin="round"/>
</g>
</svg>
