<svg width="67" height="55" viewBox="0 0 67 55" fill="none" xmlns="http://www.w3.org/2000/svg">
<g id="Vector">
<path fill-rule="evenodd" clip-rule="evenodd" d="M39.5909 12.2222C38.7832 12.2222 38.0086 12.5441 37.4374 13.1172C36.8663 13.6902 36.5455 14.4674 36.5455 15.2778V39.7222C36.5455 40.5326 36.8663 41.3098 37.4374 41.8828C38.0086 42.4559 38.7832 42.7778 39.5909 42.7778H51.7727C52.5804 42.7778 53.3551 42.4559 53.9262 41.8828C54.4973 41.3098 54.8182 40.5326 54.8182 39.7222V15.2778C54.8182 14.4674 54.4973 13.6902 53.9262 13.1172C53.3551 12.5441 52.5804 12.2222 51.7727 12.2222H39.5909ZM48.7273 18.3333H42.6364V36.6667H48.7273V18.3333Z" fill="black"/>
<path d="M15.2273 12.2222C14.4196 12.2222 13.6449 12.5441 13.0738 13.1172C12.5027 13.6902 12.1818 14.4674 12.1818 15.2778C12.1818 16.0882 12.5027 16.8654 13.0738 17.4384C13.6449 18.0114 14.4196 18.3333 15.2273 18.3333H27.4091C28.2168 18.3333 28.9914 18.0114 29.5626 17.4384C30.1337 16.8654 30.4545 16.0882 30.4545 15.2778C30.4545 14.4674 30.1337 13.6902 29.5626 13.1172C28.9914 12.5441 28.2168 12.2222 27.4091 12.2222H15.2273ZM15.2273 24.4444C14.4196 24.4444 13.6449 24.7664 13.0738 25.3394C12.5027 25.9124 12.1818 26.6896 12.1818 27.5C12.1818 28.3104 12.5027 29.0876 13.0738 29.6606C13.6449 30.2336 14.4196 30.5556 15.2273 30.5556H27.4091C28.2168 30.5556 28.9914 30.2336 29.5626 29.6606C30.1337 29.0876 30.4545 28.3104 30.4545 27.5C30.4545 26.6896 30.1337 25.9124 29.5626 25.3394C28.9914 24.7664 28.2168 24.4444 27.4091 24.4444H15.2273ZM12.1818 39.7222C12.1818 38.9118 12.5027 38.1346 13.0738 37.5616C13.6449 36.9886 14.4196 36.6667 15.2273 36.6667H27.4091C28.2168 36.6667 28.9914 36.9886 29.5626 37.5616C30.1337 38.1346 30.4545 38.9118 30.4545 39.7222C30.4545 40.5326 30.1337 41.3098 29.5626 41.8828C28.9914 42.4559 28.2168 42.7778 27.4091 42.7778H15.2273C14.4196 42.7778 13.6449 42.4559 13.0738 41.8828C12.5027 41.3098 12.1818 40.5326 12.1818 39.7222Z" fill="black"/>
<path fill-rule="evenodd" clip-rule="evenodd" d="M9.13636 0C6.71325 0 4.38938 0.965771 2.67598 2.68485C0.962578 4.40394 0 6.73552 0 9.16667V45.8333C0 48.2645 0.962578 50.5961 2.67598 52.3151C4.38938 54.0342 6.71325 55 9.13636 55H57.8636C60.2868 55 62.6106 54.0342 64.324 52.3151C66.0374 50.5961 67 48.2645 67 45.8333V9.16667C67 6.73552 66.0374 4.40394 64.324 2.68485C62.6106 0.965771 60.2868 0 57.8636 0H9.13636ZM57.8636 6.11111H9.13636C8.32866 6.11111 7.55404 6.43304 6.9829 7.00606C6.41177 7.57909 6.09091 8.35628 6.09091 9.16667V45.8333C6.09091 46.6437 6.41177 47.4209 6.9829 47.9939C7.55404 48.567 8.32866 48.8889 9.13636 48.8889H57.8636C58.6713 48.8889 59.446 48.567 60.0171 47.9939C60.5882 47.4209 60.9091 46.6437 60.9091 45.8333V9.16667C60.9091 8.35628 60.5882 7.57909 60.0171 7.00606C59.446 6.43304 58.6713 6.11111 57.8636 6.11111Z" fill="black"/>
</g>
</svg>
