<svg width="55" height="55" viewBox="0 0 55 55" fill="none" xmlns="http://www.w3.org/2000/svg">
<g id="Vector">
<path d="M13.75 49.1071C14.8348 49.1071 15.7143 48.2277 15.7143 47.1429C15.7143 46.058 14.8348 45.1786 13.75 45.1786C12.6652 45.1786 11.7857 46.058 11.7857 47.1429C11.7857 48.2277 12.6652 49.1071 13.75 49.1071Z" fill="black"/>
<path d="M3.92857 43.2143V51.0714C3.92857 53.2321 5.69643 55 7.85714 55H31.4286V51.0714H7.85714V43.2143H31.4286V39.2857H7.85714C5.69643 39.2857 3.92857 41.0536 3.92857 43.2143ZM3.92857 21.6071V31.4286C3.92857 33.5893 5.69643 35.3571 7.85714 35.3571H23.5714V31.4286H7.85714V21.6071H3.92857Z" fill="black"/>
<path d="M13.75 29.4643C14.8348 29.4643 15.7143 28.5848 15.7143 27.5C15.7143 26.4152 14.8348 25.5357 13.75 25.5357C12.6652 25.5357 11.7857 26.4152 11.7857 27.5C11.7857 28.5848 12.6652 29.4643 13.75 29.4643Z" fill="black"/>
<path d="M51.0714 33.3929V23.5714C51.0714 21.4107 49.3036 19.6429 47.1429 19.6429H31.4286V23.5714H47.1429V33.3929H51.0714ZM51.0714 11.7857V3.92857C51.0714 1.76786 49.3036 0 47.1429 0H23.5714V3.92857H47.1429V11.7857H23.5714V15.7143H47.1429C49.3036 15.7143 51.0714 13.9464 51.0714 11.7857Z" fill="black"/>
<path d="M42.0554 39.2857L15.7143 12.9446V0H0V15.7143H12.9446L39.2857 42.0554V55H55V39.2857H42.0554ZM11.7857 11.7857H3.92857V3.92857H11.7857V11.7857ZM51.0714 51.0714H43.2143V43.2143H51.0714V51.0714Z" fill="black"/>
</g>
</svg>
