<svg width="61" height="61" viewBox="0 0 61 61" fill="none" xmlns="http://www.w3.org/2000/svg">
<g id="Vector">
<path d="M38.3571 58H54.0714C55.1134 58 56.1126 57.5861 56.8493 56.8493C57.5861 56.1126 58 55.1134 58 54.0714V6.92857C58 5.88665 57.5861 4.8874 56.8493 4.15065C56.1126 3.4139 55.1134 3 54.0714 3H38.3571C37.3152 3 36.316 3.4139 35.5792 4.15065C34.8425 4.8874 34.4286 5.88665 34.4286 6.92857V54.0714C34.4286 55.1134 34.8425 56.1126 35.5792 56.8493C36.316 57.5861 37.3152 58 38.3571 58ZM38.3571 58H16.75M26.5714 46.2143V58M34.4286 22.6429H58M40.3214 46.2143H52.1071M6.92857 14.7857H34.4286V46.2143H6.92857C5.88665 46.2143 4.8874 45.8004 4.15065 45.0636C3.4139 44.3269 3 43.3276 3 42.2857V18.7143C3 17.6724 3.4139 16.6731 4.15065 15.9364C4.8874 15.1996 5.88665 14.7857 6.92857 14.7857Z" stroke="black" stroke-width="5"/>
<path d="M38.3571 58H54.0714C55.1134 58 56.1126 57.5861 56.8493 56.8493C57.5861 56.1126 58 55.1134 58 54.0714V6.92857C58 5.88665 57.5861 4.8874 56.8493 4.15065C56.1126 3.4139 55.1134 3 54.0714 3H38.3571C37.3152 3 36.316 3.4139 35.5792 4.15065C34.8425 4.8874 34.4286 5.88665 34.4286 6.92857V54.0714C34.4286 55.1134 34.8425 56.1126 35.5792 56.8493C36.316 57.5861 37.3152 58 38.3571 58ZM38.3571 58H16.75M26.5714 46.2143V58M34.4286 22.6429H58M40.3214 46.2143H52.1071M6.92857 14.7857H34.4286V46.2143H6.92857C5.88665 46.2143 4.8874 45.8004 4.15065 45.0636C3.4139 44.3269 3 43.3276 3 42.2857V18.7143C3 17.6724 3.4139 16.6731 4.15065 15.9364C4.8874 15.1996 5.88665 14.7857 6.92857 14.7857Z" stroke="black" stroke-opacity="0.2" stroke-width="5"/>
</g>
</svg>
